<?xml version="1.0" encoding="UTF-8" standalone="no"?>
<!DOCTYPE svg PUBLIC "-//W3C//DTD SVG 1.1//EN" "http://www.w3.org/Graphics/SVG/1.1/DTD/svg11.dtd">
<svg width="100%" height="100%" viewBox="0 0 200 200" version="1.1" xmlns="http://www.w3.org/2000/svg" xmlns:xlink="http://www.w3.org/1999/xlink" xml:space="preserve" xmlns:serif="http://www.serif.com/" style="fill-rule:evenodd;clip-rule:evenodd;stroke-linejoin:round;stroke-miterlimit:2;">
    <g transform="matrix(1.53151,0,0,1.73971,-74.2309,-24.4168)">
        <path d="M90.181,80.652L54.999,80.652C51.395,80.652 48.469,83.227 48.469,86.4C48.469,89.572 51.395,92.148 54.999,92.148L90.181,92.148L90.23,92.146C97.887,92.115 99.284,89.257 98.068,86.4C99.283,83.542 97.886,80.686 90.23,80.653L90.181,80.652Z"/>
    </g>
    <g transform="matrix(1.53151,0,0,1.73971,-74.2309,-24.4168)">
        <path d="M125.251,50.938L115.526,50.938C110.285,50.938 105.242,51.815 100.107,52.466C99.224,52.444 96.42,52.39 95.18,52.544C92.906,52.825 91.445,53.767 90.726,54.41C89.95,55.105 88.818,56.586 88.57,58.876C88.344,60.959 88.853,65.239 88.853,66.061L88.853,90.221C88.853,96.895 88.535,103.608 88.531,110.257C88.5,110.644 88.075,116.086 88.379,117.231C88.947,119.369 90.384,120.451 91.398,121.009C92.216,121.459 93.267,121.829 94.523,121.973C95.513,122.086 97.709,121.918 98.147,121.882L108.072,121.882C117.607,121.882 127.122,120.869 136.691,120.869C139.848,120.869 142.928,121.483 146.035,121.51C146.289,121.572 147.431,121.849 148.032,121.962L148.424,122.025C149.284,122.219 150.148,122.357 151.07,122.357C157.384,122.357 157.692,117.258 157.71,116.797C157.746,115.853 157.714,112.406 153.163,111.119C152.978,111.067 151.796,110.896 151.084,110.775C150.702,110.663 150.139,110.503 149.772,110.411C149.22,110.272 148.664,110.201 148.115,110.191C147.499,110.087 146.879,110.016 146.255,110.016C143.074,110.016 139.922,109.373 136.691,109.373C127.122,109.373 117.607,110.386 108.072,110.386L101.589,110.386C101.59,103.695 101.912,96.938 101.912,90.221L101.912,66.061C101.912,65.803 101.865,64.9 101.805,63.865C106.378,63.286 110.859,62.434 115.526,62.434L125.251,62.434L125.287,62.433C132.976,62.411 134.374,59.548 133.15,56.686C134.373,53.824 132.975,50.963 125.287,50.939L125.251,50.938Z"/>
    </g>
    <g transform="matrix(1.53151,0,0,1.73971,-74.2309,-24.4168)">
        <path d="M134.5,19.981C133.867,19.951 131.77,19.867 130.861,20.008C128.87,20.316 127.535,21.197 126.74,21.979C124.338,24.343 124.568,27.98 127.254,30.095C128.896,31.389 131.08,31.816 133.077,31.409C133.55,31.439 134.228,31.478 134.388,31.478C136.785,31.478 139.08,31.279 141.484,31.279L172.53,31.279C176.134,31.279 179.059,28.704 179.059,25.531C179.059,22.359 176.134,19.783 172.53,19.783L141.484,19.783C139.117,19.783 136.857,19.976 134.5,19.981Z"/>
    </g>
    <g transform="matrix(1.53151,0,0,1.73971,-74.2309,-24.4168)">
        <path d="M125.077,25.99C125.077,34.656 124.685,43.442 125.237,52.081C125.859,61.796 126.997,71.086 126.997,80.724C126.997,83.896 129.922,86.472 133.526,86.472C137.13,86.472 140.056,83.896 140.056,80.724C140.056,70.869 138.911,61.369 138.276,51.435C137.737,43.009 138.136,34.441 138.136,25.99C138.136,22.817 135.211,20.241 131.607,20.241C128.003,20.241 125.077,22.817 125.077,25.99Z"/>
    </g>
    <g transform="matrix(1.53151,0,0,1.73971,-74.2309,-24.4168)">
        <path d="M168.029,74.021C164.867,74.055 161.649,74.33 158.498,74.594C150.23,75.286 141.845,74.976 133.526,74.976C129.922,74.976 126.997,77.551 126.997,80.724C126.997,83.896 129.922,86.472 133.526,86.472C142.257,86.472 151.057,86.765 159.734,86.039C162.716,85.789 165.764,85.51 168.746,85.51C168.972,85.51 172.101,85.351 172.726,85.259C177.919,84.495 178.247,80.3 178.258,79.652C178.286,77.915 177.557,75.95 175.119,74.596C174.011,73.98 171.218,73.521 170.689,73.521C169.741,73.521 168.841,73.699 168.029,74.021Z"/>
    </g>
</svg>
