<?xml version="1.0" encoding="UTF-8" standalone="no"?>
<!DOCTYPE svg PUBLIC "-//W3C//DTD SVG 1.1//EN" "http://www.w3.org/Graphics/SVG/1.1/DTD/svg11.dtd">
<svg width="100%" height="100%" viewBox="0 0 1600 1200" version="1.1" xmlns="http://www.w3.org/2000/svg" xmlns:xlink="http://www.w3.org/1999/xlink" xml:space="preserve" xmlns:serif="http://www.serif.com/" style="fill-rule:evenodd;clip-rule:evenodd;stroke-linejoin:round;stroke-miterlimit:2;">
    <g transform="matrix(2,0,0,2,0,0)">
        <g transform="matrix(0.466667,0,0,1,-100,-1.13687e-13)">
            <path d="M300,280L300,320L300,280Z"/>
        </g>
        <g transform="matrix(1.33333,0,0,1,-346.667,160)">
            <rect x="260" y="160" width="30" height="80"/>
        </g>
        <g transform="matrix(1.33333,0,0,1,-346.667,160)">
            <rect x="260" y="40" width="30" height="80"/>
        </g>
        <g transform="matrix(1.33333,0,0,1,-346.667,160)">
            <rect x="260" y="120" width="30" height="40"/>
        </g>
        <g transform="matrix(1.2,0,0,1,-320,160)">
            <rect x="300" y="40" width="100" height="40"/>
        </g>
        <g transform="matrix(1,0,0,1,-260,160)">
            <rect x="300" y="200" width="120" height="40"/>
        </g>
        <g transform="matrix(1,0,0,2,-260,-1.42109e-13)">
            <rect x="420" y="140" width="40" height="100"/>
        </g>
        <g transform="matrix(1,0,0,1,-260,160)">
            <rect x="460" y="120" width="120" height="40"/>
        </g>
        <g transform="matrix(1.33333,0,0,1.8,-26.6667,128)">
            <path d="M260,40L260,240L290,240L290,40L260,40Z"/>
        </g>
        <g transform="matrix(0.833333,0,0,1,-183.333,160)">
            <rect x="460" y="280" width="120" height="40"/>
        </g>
        <g transform="matrix(1,0,0,1,-100,80)">
            <rect x="460" y="280" width="120" height="40"/>
        </g>
        <g transform="matrix(1,0,0,1,-100,240)">
            <rect x="460" y="280" width="120" height="40"/>
        </g>
        <g transform="matrix(1.2,0,0,1,0,160)">
            <rect x="300" y="40" width="100" height="40"/>
        </g>
        <g transform="matrix(1.2,0,0,1,0,160)">
            <path d="M300,80L300,40L300,80Z"/>
        </g>
        <g transform="matrix(1,0,0,1,-260,-160)">
            <rect x="460" y="280" width="120" height="40"/>
        </g>
        <g transform="matrix(1.33333,0,0,0.7,-186.667,92)">
            <path d="M260,40L260,240L290,240L290,40L260,40Z"/>
        </g>
        <g transform="matrix(1.33333,0,0,0.7,-186.667,92)">
            <path d="M260,154.286L260,211.429L260,154.286Z"/>
        </g>
        <g transform="matrix(1,0,0,1,-100,-240)">
            <rect x="460" y="280" width="120" height="40"/>
        </g>
        <g transform="matrix(1.33333,0,0,0.7,-26.6667,12)">
            <rect x="260" y="40" width="30" height="200"/>
        </g>
        <g transform="matrix(1,0,0,1,60,-160)">
            <rect x="460" y="280" width="120" height="40"/>
        </g>
        <g transform="matrix(1,0,0,1,220,-80)">
            <rect x="460" y="280" width="120" height="40"/>
        </g>
        <g transform="matrix(1,0,0,1,60,-1.13687e-13)">
            <rect x="460" y="280" width="120" height="40"/>
        </g>
        <g transform="matrix(1.33333,0,0,1,133.333,80)">
            <path d="M290,240L290,40L260,40L260,240L290,240Z"/>
        </g>
        <g transform="matrix(1.33333,0,0,1,133.333,80)">
            <path d="M290,240L290,200L290,240Z"/>
        </g>
        <g transform="matrix(1.33333,0,0,0.6,293.333,96)">
            <path d="M260,40L260,240L290,240L290,40L260,40Z"/>
        </g>
        <g transform="matrix(1,0,0,1,60,160)">
            <rect x="460" y="280" width="120" height="40"/>
        </g>
        <g transform="matrix(1.33333,0,0,0.6,133.333,416)">
            <path d="M260,40L260,240L290,240L290,40L260,40Z"/>
        </g>
    </g>
</svg>
