<?xml version="1.0" encoding="UTF-8" standalone="no"?>
<!DOCTYPE svg PUBLIC "-//W3C//DTD SVG 1.1//EN" "http://www.w3.org/Graphics/SVG/1.1/DTD/svg11.dtd">
<svg width="100%" height="100%" viewBox="0 0 1600 1200" version="1.1" xmlns="http://www.w3.org/2000/svg" xmlns:xlink="http://www.w3.org/1999/xlink" xml:space="preserve" xmlns:serif="http://www.serif.com/" style="fill-rule:evenodd;clip-rule:evenodd;stroke-linecap:round;stroke-linejoin:round;stroke-miterlimit:1.5;">
    <g transform="matrix(2,0,0,2,0,0)">
        <g transform="matrix(1,0,0,-1,160,600)">
            <rect x="460" y="280" width="120" height="40" style="stroke:rgb(235,235,235);stroke-width:1px;"/>
        </g>
        <g transform="matrix(1,0,0,-1,160,760)">
            <rect x="460" y="280" width="120" height="40" style="stroke:rgb(235,235,235);stroke-width:1px;"/>
        </g>
        <g transform="matrix(1.33333,-6.99798e-17,3.67394e-17,-1,233.333,520)">
            <rect x="260" y="40" width="30" height="200" style="stroke:rgb(235,235,235);stroke-width:0.85px;"/>
        </g>
        <g transform="matrix(1,0,0,-1,1.7053e-13,360)">
            <rect x="460" y="280" width="120" height="40" style="stroke:rgb(235,235,235);stroke-width:1px;"/>
        </g>
        <g transform="matrix(1.33333,9.86076e-32,-4.93038e-32,-0.7,73.3333,208)">
            <rect x="260" y="40" width="30" height="200" style="stroke:rgb(235,235,235);stroke-width:0.94px;"/>
        </g>
        <g transform="matrix(1.33333,0,0,1,-246.667,160)">
            <rect x="260" y="40" width="30" height="200" style="stroke:rgb(235,235,235);stroke-width:0.85px;"/>
        </g>
        <g transform="matrix(1.2,0,0,1,-220,160)">
            <rect x="300" y="40" width="100" height="40" style="stroke:rgb(235,235,235);stroke-width:0.91px;"/>
        </g>
        <g transform="matrix(1.2,0,0,1,-360,240)">
            <rect x="300" y="40" width="100" height="40" style="stroke:rgb(235,235,235);stroke-width:0.91px;"/>
        </g>
        <g transform="matrix(1,0,0,1,-160,160)">
            <rect x="300" y="200" width="120" height="40" style="stroke:rgb(235,235,235);stroke-width:1px;"/>
        </g>
        <g transform="matrix(1,0,0,2,-160,-2.84217e-14)">
            <rect x="420" y="140" width="40" height="100" style="stroke:rgb(235,235,235);stroke-width:0.63px;"/>
        </g>
        <g transform="matrix(1,0,0,1,-160,160)">
            <rect x="460" y="120" width="120" height="40" style="stroke:rgb(235,235,235);stroke-width:1px;"/>
        </g>
        <g transform="matrix(1.33333,0,0,1,73.3333,160)">
            <rect x="260" y="40" width="30" height="200" style="stroke:rgb(235,235,235);stroke-width:0.85px;"/>
        </g>
        <g transform="matrix(1,0,0,1,-160,160)">
            <rect x="460" y="280" width="120" height="40" style="stroke:rgb(235,235,235);stroke-width:1px;"/>
        </g>
        <g transform="matrix(1,0,0,1,-1.13687e-13,80)">
            <rect x="460" y="280" width="120" height="40" style="stroke:rgb(235,235,235);stroke-width:1px;"/>
        </g>
        <g transform="matrix(1.2,0,0,1,100,160)">
            <rect x="300" y="40" width="100" height="40" style="stroke:rgb(235,235,235);stroke-width:0.91px;"/>
        </g>
        <g transform="matrix(1,0,0,1,-160,-160)">
            <rect x="460" y="280" width="120" height="40" style="stroke:rgb(235,235,235);stroke-width:1px;"/>
        </g>
        <g transform="matrix(1.33333,0,0,0.7,-86.6667,92)">
            <rect x="260" y="40" width="30" height="200" style="stroke:rgb(235,235,235);stroke-width:0.94px;"/>
        </g>
    </g>
</svg>
